<?xml version="1.0" encoding="utf-8"?>
<!-- Generator: Adobe Illustrator 21.0.0, SVG Export Plug-In . SVG Version: 6.00 Build 0)  -->
<svg version="1.1" id="Layer_1" xmlns="http://www.w3.org/2000/svg" xmlns:xlink="http://www.w3.org/1999/xlink" x="0px" y="0px"
	 viewBox="0 0 212.6 81.7" style="enable-background:new 0 0 212.6 81.7;" xml:space="preserve">
<style type="text/css">
	.st0{clip-path:url(#SVGID_2_);fill:#A50575;}
</style>
<g>
	<defs>
		<rect id="SVGID_1_" y="0" width="212.6" height="81.7"/>
	</defs>
	<clipPath id="SVGID_2_">
		<use xlink:href="#SVGID_1_"  style="overflow:visible;"/>
	</clipPath>
	<path class="st0" d="M183.8,35.1c-0.1-0.1-0.1-0.1-0.1-0.1c0,0,0,0,0,0c-0.7-0.6-1.4-0.9-2.2-1.1h-0.2c-0.2,0-0.3,0-0.5,0
		c-0.2,0-0.4,0-0.5,0l-18.3,0.1c-1.6,0.2-3,0.9-4.2,2.1c-1.4,1.4-2.1,3.1-2.1,5.1c0,2,0.7,3.7,2.1,5.1c1.1,1.1,2.4,1.8,3.9,2
		l20.9,0.1h0.1c0.6,0,1.2-0.2,1.6-0.7c0.4-0.5,0.7-1,0.7-1.6c0-0.6-0.2-1.2-0.7-1.6c-0.3-0.3-0.7-0.5-1.1-0.6c-0.1,0-0.2,0-0.3,0
		h-19.1c-0.6-0.1-1.1-0.4-1.5-0.8c-0.6-0.6-0.8-1.3-0.8-2c0-0.6,0.2-1.1,0.5-1.6v-0.1c0,0,0.1-0.1,0.1-0.1c0.1-0.1,0.2-0.2,0.3-0.3
		c0.3-0.4,0.7-0.6,1.1-0.7L181,38c0.1,0,0.3,0,0.4,0c0.2,0,0.4,0,0.5,0.2c0.2,0.1,0.2,0.3,0.2,0.5c0,0.2-0.1,0.3-0.2,0.4
		c-0.1,0.1-0.3,0.2-0.5,0.2h-18.7l2.8,3.2l15-0.1h0.3c1.2,0,2.2-0.4,3-1.3c0.8-0.8,1.2-1.9,1.2-3C185,36.9,184.6,35.9,183.8,35.1"/>
	<path class="st0" d="M153.5,45.7c0-0.8-0.3-1.4-0.8-1.9c-0.5-0.5-1-0.7-1.5-0.7h-16.5V29.4c-0.1-0.5-0.4-1-0.8-1.4
		c-0.5-0.6-1.2-0.8-2-0.8c-0.8,0-1.4,0.3-2,0.8c-0.5,0.5-0.8,1.2-0.8,1.9v0.1l0,16.7c0.1,0.4,0.2,0.7,0.5,1c0.4,0.4,0.8,0.5,1.3,0.5
		c0.1,0,0.2,0,0.4,0l19.6,0.1c0.1,0,0.2,0,0.3,0c0.1,0,0.1,0,0.2,0c0.1,0,0.1,0,0.2,0c0.4-0.1,0.8-0.4,1.1-0.7
		C153.2,47,153.5,46.4,153.5,45.7"/>
	<path class="st0" d="M119,39.2c0.4,0.1,0.8,0.3,1.1,0.5c0.4,0.4,0.6,0.9,0.6,1.5c0,0.6-0.2,1-0.6,1.3c-0.4,0.3-0.7,0.5-0.9,0.5
		h-0.5h-15l4.4,5.3h13.3c1.3-0.3,2.4-1,3.5-2c1.5-1.4,2.2-3.1,2.2-5.1c0-2-0.8-3.7-2.2-5.1c-1.1-1.1-2.5-1.8-4-2l-24.2-0.1l0.1,17v0
		v1.6c0.1,0.5,0.4,0.9,0.8,1.3c0.5,0.5,1.2,0.7,1.9,0.7c0.7,0,1.4-0.2,1.9-0.7c0.5-0.5,0.8-1,0.8-1.6l0-1.9c0-3.4,0-6.8,0-10.2h0
		v-0.8l16.5,0C118.8,39.2,118.9,39.2,119,39.2"/>
	<path class="st0" d="M94.7,34.5c-0.4-0.4-0.8-0.6-1.4-0.6c-0.1,0-0.2,0-0.3,0h-0.1H58.8v12.2c0,0,0,0.1,0,0.2
		c0.1,0.5,0.4,0.9,0.8,1.3c0.6,0.6,1.3,0.9,2.2,0.9c0.8,0,1.6-0.3,2.1-0.9c0.6-0.6,0.9-1.3,0.9-2.1v-6.3h9v7.3
		c0.2,0.4,0.4,0.8,0.7,1.1c0.6,0.6,1.4,0.9,2.2,0.9c0.9,0,1.6-0.3,2.2-0.9c0.4-0.4,0.6-0.8,0.8-1.3v-7.1h9.7v7.1
		c0.1,0.5,0.4,0.9,0.7,1.3c0.6,0.6,1.3,0.9,2.1,0.9c0.8,0,1.5-0.3,2.1-0.9c0.6-0.6,0.9-1.3,0.9-2.1v-9.7l0-0.3
		C95.1,35.1,94.9,34.7,94.7,34.5"/>
	<path class="st0" d="M53.3,47.7c0.5,0.5,1,0.7,1.6,0.7c0.7,0,1.2-0.2,1.7-0.7c0.4-0.4,0.6-0.8,0.7-1.3V33.9l-23.5,0
		c-1.5,0.2-2.8,0.9-3.9,2c-1.5,1.4-2.1,3.1-2.1,5.1c0,2,0.7,3.7,2.1,5.1c1.1,1.1,2.3,1.8,3.7,2.1c0.2,0,0.3,0,0.4,0.1h13.2l4.5-5.1
		H36c-0.1,0-0.2,0-0.3-0.1c-0.4-0.1-0.8-0.3-1.1-0.6c-0.4-0.4-0.6-0.9-0.6-1.4c0-0.6,0.2-1,0.6-1.4c0.3-0.3,0.7-0.5,1.1-0.6
		c0.1,0,0.2,0,0.3,0h16.7v6.9C52.6,46.7,52.9,47.3,53.3,47.7"/>
</g>
</svg>
