<?xml version="1.0" encoding="utf-8"?>
<!-- Generator: Adobe Illustrator 18.0.0, SVG Export Plug-In . SVG Version: 6.00 Build 0)  -->
<!DOCTYPE svg PUBLIC "-//W3C//DTD SVG 1.1//EN" "http://www.w3.org/Graphics/SVG/1.1/DTD/svg11.dtd">
<svg version="1.1" id="Capa_1" xmlns="http://www.w3.org/2000/svg" xmlns:xlink="http://www.w3.org/1999/xlink" x="0px" y="0px"
	 viewBox="238 0 676 648" enable-background="new 238 0 676 648" xml:space="preserve">
<polygon fill="#FFFFFF" points="774.6,350.4 823,350.4 823,391.2 725.9,391.2 725.9,251.8 774.6,251.8 "/>
<g>
	<path fill="#FFFFFF" d="M664.5,348.5v-94.9c0-1-0.8-1.8-1.8-1.8h-45c-1,0-1.8,0.8-1.8,1.8v45.6c0,0.6-0.3,1.1-0.7,1.4l-65.3,51.2
		c-0.7,0.5-1.6,0.5-2.3,0l-9.9-7.8c-0.9-0.7-0.9-2.2,0-2.9l63.4-49.8c0.9-0.7,0.9-2.2,0-2.9l-24.1-19c-0.7-0.5-1.6-0.5-2.3,0
		L510,320.5c-0.7,0.5-1.6,0.5-2.3,0l-9.9-7.8c-0.9-0.7-0.9-2.2,0-2.9l63.3-49.8c0.9-0.7,0.9-2.2,0-2.9l-24.1-19
		c-0.7-0.5-1.6-0.5-2.3,0l-70.2,55.1c-0.9,0.7-2.3,0.4-2.8-0.7c-9.5-21.4-32.7-40.9-64.4-40.9h-60.7c-1,0-1.8,0.8-1.8,1.8v135.7
		c0,1,0.8,1.8,1.8,1.8h60.7c28.6,0,53.4-16.7,64.5-40.9c0.5-1.1,1.9-1.4,2.8-0.7l70.2,55.2c0.7,0.5,1.6,0.5,2.3,0l75.9-59.7
		c1.2-0.9,3-0.1,3,1.4v42.8c0,1,0.8,1.8,1.8,1.8h93.4c1,0,1.8-0.8,1.8-1.8v-37.1c0-1-0.8-1.8-1.8-1.8h-44.8
		C665.4,350.3,664.5,349.5,664.5,348.5z M392.2,351.1h-8.7c-1,0-1.8-0.8-1.8-1.8v-55.6c0-1,0.8-1.8,1.8-1.8h9
		c17.7,0,30.2,10.7,30.2,29.6C422.7,342.1,408.7,351.1,392.2,351.1z"/>
	<path fill="#FFFFFF" d="M576,0C397.1,0,252,145.1,252,324c0,179,145.1,324,324,324c179,0,324-145.1,324-324
		C900,145.1,754.9,0,576,0 M576,612.9C416.4,612.9,287,483.6,287,324C287,164.4,416.4,35,576,35c159.6,0,289,129.4,289,289
		C865,483.6,735.6,612.9,576,612.9"/>
</g>
</svg>
