<?xml version="1.0" encoding="utf-8"?>
<!-- Generator: Adobe Illustrator 18.0.0, SVG Export Plug-In . SVG Version: 6.00 Build 0)  -->
<!DOCTYPE svg PUBLIC "-//W3C//DTD SVG 1.1//EN" "http://www.w3.org/Graphics/SVG/1.1/DTD/svg11.dtd">
<svg version="1.1" id="Layer_1" xmlns="http://www.w3.org/2000/svg" xmlns:xlink="http://www.w3.org/1999/xlink" x="0px" y="0px"
	 viewBox="0 0 682.7 682.7" enable-background="new 0 0 682.7 682.7" xml:space="preserve">
<path fill="#808285" d="M604.7,0H35.3C15.8,0,0,15.8,0,35.3v569.4C0,624.2,15.8,640,35.3,640h306.5V392.5h-83.1v-96.9h83.1v-71.3
	c0-82.7,50.5-127.7,124.2-127.7c35.3,0,65.7,2.6,74.5,3.8v86.4h-50.9c-40.1,0-47.9,19.1-47.9,47.1v61.7h95.9l-12.5,96.9h-83.4V640
	h162.8c19.5,0,35.3-15.8,35.3-35.3c0,0,0,0,0,0V35.3C640,15.8,624.2,0,604.7,0z"/>
</svg>
