<?xml version="1.0" encoding="utf-8"?>
<!-- Generator: Adobe Illustrator 18.0.0, SVG Export Plug-In . SVG Version: 6.00 Build 0)  -->
<!DOCTYPE svg PUBLIC "-//W3C//DTD SVG 1.1//EN" "http://www.w3.org/Graphics/SVG/1.1/DTD/svg11.dtd">
<svg version="1.1" id="Layer_1" xmlns="http://www.w3.org/2000/svg" xmlns:xlink="http://www.w3.org/1999/xlink" x="0px" y="0px"
	 viewBox="0 0 2500 2500" enable-background="new 0 0 2500 2500" xml:space="preserve">
<g>
	<path fill="#FFFFFF" d="M1414.3,787.8c-0.1-12.8-2.6-25.6-7.4-37.4c-4.9-11.8-12.1-22.7-21.2-31.7c-18.3-18.3-43.2-28.7-69.1-28.6
		l-114.5,0.4v443.4l131.7-0.5c10.7,0,21.2-2.1,31.1-6.2c30.3-12.5,50.1-42.2,50.1-75L1414.3,787.8z M1422.6,1349.7
		c0-12.8-2.6-25.6-7.5-37.4c-4.9-11.8-12.2-22.7-21.2-31.7c-18.3-18.4-43.2-28.7-69.1-28.6l-122.8,0.4v522.8l140-0.5
		c10.6,0,21.2-2.1,31.1-6.2c19.9-8.2,35.7-24,43.9-43.9c4.1-9.8,6.2-20.4,6.2-31.1L1422.6,1349.7z M1422.6,1349.7
		c0-12.8-2.6-25.6-7.5-37.4c-4.9-11.8-12.2-22.7-21.2-31.7c-18.3-18.4-43.2-28.7-69.1-28.6l-122.8,0.4v522.8l140-0.5
		c10.6,0,21.2-2.1,31.1-6.2c19.9-8.2,35.7-24,43.9-43.9c4.1-9.8,6.2-20.4,6.2-31.1L1422.6,1349.7z M1364.8,1127.2
		c30.3-12.5,50.1-42.2,50.1-75l-0.6-264.3c-0.1-12.8-2.6-25.6-7.4-37.4c-4.9-11.8-12.1-22.7-21.2-31.7
		c-18.3-18.3-43.2-28.7-69.1-28.6l-114.5,0.4v443.4l131.7-0.5C1344.4,1133.3,1355,1131.2,1364.8,1127.2z M0,0v2500h2500V0H0z
		 M453.5,577.4l-207.9,473.1L36.8,577.4H453.5z M113.7,1222.6c0-13.5,2.1-27.2,6.2-40.3c4.2-13.3,10.5-25.8,18.6-37.1
		c16.4-22.8,39.7-39.8,66.5-48.4c26.2-8.3,54.3-8.3,80.5,0c13.3,4.2,25.8,10.5,37.1,18.6c22.8,16.5,39.8,39.9,48.3,66.8
		c4.2,13.1,6.2,26.8,6.2,40.4c0,27.6-8.7,54.6-24.9,77c-8.3,11.4-18.3,21.3-29.7,29.6c-11.3,8.1-23.9,14.4-37.1,18.6
		c-26.1,8.3-54.2,8.3-80.3,0c-13.2-4.2-25.7-10.5-36.9-18.6c-22.8-16.4-39.7-39.8-48.2-66.5C115.7,1249.6,113.7,1236.1,113.7,1222.6
		z M804.4,1663c0,34.2-6.8,68-19.8,99.6c-13.1,31.6-32.3,60.2-56.4,84.4c-24.2,24.2-52.8,43.3-84.4,56.4
		c-31.5,13-65.5,19.8-99.5,19.8H404.8c-34.2,0-68-6.8-99.6-19.8c-31.5-13.1-60.2-32.3-84.4-56.4c-24.2-24.2-43.3-52.8-56.4-84.4
		c-13-31.5-19.8-65.5-19.8-99.6v-167.4l225.5,0.3l0.2,221.7c0,12.8,2.5,25.5,7.4,37.4c9.9,23.9,29,43,52.9,52.9
		c11.8,4.9,24.6,7.4,37.4,7.4H488c12.8,0,25.5-2.5,37.4-7.4c23.9-9.9,43-29,52.9-52.9c4.9-11.9,7.4-24.6,7.5-37.4l-0.1-1138.9
		l218.8-0.3V1663z M1652.7,1683.9c0,27.8-5.5,55.3-16.1,81c-32.7,78.9-109.8,130.4-195.2,130.4H989.8V576.8h435.1
		c27.7,0,55.4,5.5,81,16.1c25.5,10.6,48.9,26.3,68.5,45.8c19.6,19.5,35.2,42.9,45.8,68.5c10.6,25.6,16.1,53.3,16.1,81l-0.1,239.7
		c0,23.4-5.1,46.4-15,67.6c-9.8,21-24.4,39.6-41,55.3c-16.2,15.5-34.8,28.3-55,38c24.3,9,46.4,23.1,64.8,41.4
		c19.7,19.6,35.4,42.8,46.2,68.3c11,26,16.6,54,16.6,82.2C1652.4,1481.8,1652.7,1582.9,1652.7,1683.9z M2463.1,1895.3h-644.6
		l-0.1-1316.8l218.8,0.3l-0.1,1114c0,12.8,2.6,25.6,7.4,37.4c4.9,11.8,12.2,22.7,21.2,31.7c9.1,9.1,19.9,16.3,31.7,21.2
		c11.9,4.9,24.6,7.4,37.4,7.4h19.8c12.8,0,25.6-2.5,37.4-7.4c11.9-4.9,22.6-12.1,31.7-21.2c9.1-9.1,16.3-19.8,21.2-31.7
		c4.9-11.8,7.4-24.6,7.4-37.4l0.2-196.9l210.7-0.3L2463.1,1895.3z M1415.2,1312.3c-4.9-11.8-12.2-22.7-21.2-31.7
		c-18.3-18.4-43.2-28.7-69.1-28.6l-122.8,0.4v522.8l140-0.5c10.6,0,21.2-2.1,31.1-6.2c19.9-8.2,35.7-24,43.9-43.9
		c4.1-9.8,6.2-20.4,6.2-31.1l-0.6-343.7C1422.6,1336.9,1420.1,1324.1,1415.2,1312.3z M1364.8,1127.2c30.3-12.5,50.1-42.2,50.1-75
		l-0.6-264.3c-0.1-12.8-2.6-25.6-7.4-37.4c-4.9-11.8-12.1-22.7-21.2-31.7c-18.3-18.3-43.2-28.7-69.1-28.6l-114.5,0.4v443.4
		l131.7-0.5C1344.4,1133.3,1355,1131.2,1364.8,1127.2z"/>
</g>
</svg>
