<?xml version="1.0" encoding="utf-8"?>
<!-- Generator: Adobe Illustrator 18.0.0, SVG Export Plug-In . SVG Version: 6.00 Build 0)  -->
<!DOCTYPE svg PUBLIC "-//W3C//DTD SVG 1.1//EN" "http://www.w3.org/Graphics/SVG/1.1/DTD/svg11.dtd">
<svg version="1.1" id="Capa_1" xmlns="http://www.w3.org/2000/svg" xmlns:xlink="http://www.w3.org/1999/xlink" x="0px" y="0px"
	 viewBox="236.1 0 672 648" enable-background="new 236.1 0 672 648" xml:space="preserve">
<path fill="#FFFFFF" d="M523.6,285.8c24.6,0,41.3,17,41.3,40.3v60.2c0,1.6-1.3,2.8-2.8,2.8h-22.3c-1.6,0-2.8-1.3-2.8-2.8v-55
	c0-13.4-11.9-21.5-23.5-21.5c-14.9,0-23,11.1-23,21.5v55c0,1.6-1.3,2.8-2.8,2.8h-22.3c-1.6,0-2.8-1.3-2.8-2.8v-96
	c0-1.6,1.3-2.8,2.8-2.8h22.3c1.6,0,2.8,1.3,2.8,2.8l0,11.7l0,0l0,0C498.6,291.2,511.9,285.8,523.6,285.8"/>
<path fill="#FFFFFF" d="M765.2,287.5h25.7c2,0,3.4,2,2.6,3.9L754,387.4c-0.4,1.1-1.5,1.7-2.6,1.7h-26.8c-1.1,0-2.2-0.7-2.6-1.7
	l-39.5-95.9c-0.8-1.9,0.6-3.9,2.6-3.9h25.7c1.2,0,2.2,0.7,2.7,1.9l21.9,60.1c0.9,2.5,4.4,2.5,5.3,0l21.9-60.1
	C762.9,288.3,764,287.5,765.2,287.5z"/>
<path fill="#FFFFFF" d="M452.2,328.6c-1.8-10.1-5.8-19.2-11.8-26.2c-9.4-10.9-23.2-16.6-40.1-16.6c-30.7,0-53.8,22.6-53.8,52.5
	c0,30.7,23.2,52.5,56.9,52.5c17.4,0,35.2-7.6,45-17c1.3-1.2,1.2-3.2-0.2-4.3l-13.5-10.4c-1-0.8-2.3-0.8-3.4-0.1
	c-10.7,7.7-17.3,9.5-27.5,9.5c-7.5,0-13.7-1.8-18.6-5.1c-1.9-1.3-1.6-4.1,0.5-5l64.9-26.9C451.7,331.2,452.4,329.9,452.2,328.6z
	 M419.5,323.4L377.2,341c-1.8,0.8-3.9-0.6-3.9-2.5c-0.3-8.5,2.2-15.3,6-20.3c4.8-6.4,12.3-10.1,21.5-10.1c8.8,0,15.8,4.4,20,11.3
	C421.7,320.8,421.1,322.8,419.5,323.4z"/>
<path fill="#FFFFFF" d="M343.7,366.3v20c0,1.6-1.3,2.8-2.8,2.8h-86.1c-1.6,0-2.8-1.3-2.8-2.8V259.9c0-1.6,1.3-2.8,2.8-2.8h22.6
	c1.6,0,2.8,1.3,2.8,2.8v100.8c0,1.6,1.3,2.8,2.8,2.8h57.8C342.5,363.5,343.7,364.8,343.7,366.3z"/>
<path fill="#FFFFFF" d="M845.6,285.8c-30.7,0-54.8,23.1-54.8,52.5c0,29.8,23.9,52.5,54.4,52.5c30.7,0,54.8-23.1,54.8-52.5
	C900,308.5,876.1,285.8,845.6,285.8z M845.6,366.9c-15.3,0-27.3-12.6-27.3-28.6c0-16.8,11.3-28.6,26.9-28.6
	c15.3,0,27.3,12.6,27.3,28.6C872.5,354.8,861.2,366.9,845.6,366.9z"/>
<path fill="#FFFFFF" d="M630.7,285.8c-30.7,0-54.8,23.1-54.8,52.5c0,29.8,23.9,52.5,54.4,52.5c30.7,0,54.8-23.1,54.8-52.5
	C685.1,308.5,661.2,285.8,630.7,285.8z M630.7,366.9c-15.3,0-27.3-12.6-27.3-28.6c0-16.8,11.3-28.6,26.9-28.6
	c15.3,0,27.3,12.6,27.3,28.6C657.6,354.8,646.3,366.9,630.7,366.9z"/>
</svg>
