<?xml version="1.0" encoding="utf-8"?>
<!-- Generator: Adobe Illustrator 18.0.0, SVG Export Plug-In . SVG Version: 6.00 Build 0)  -->
<!DOCTYPE svg PUBLIC "-//W3C//DTD SVG 1.1//EN" "http://www.w3.org/Graphics/SVG/1.1/DTD/svg11.dtd">
<svg version="1.1" id="Capa_1" xmlns="http://www.w3.org/2000/svg" xmlns:xlink="http://www.w3.org/1999/xlink" x="0px" y="0px"
	 viewBox="236 0 672 648" enable-background="new 236 0 672 648" xml:space="preserve">
<g>
	<g>
		<path fill="#FFFFFF" d="M882.2,3.4c-3-2.6-6.9-3.8-10.9-3.3L594.2,37.2c-6.9,0.9-12,6.8-12,13.7v242.5c0,7.6,6.2,13.8,13.8,13.8
			h277.1c7.6,0,13.8-6.2,13.8-13.8V13.8C886.9,9.8,885.2,6,882.2,3.4z M859.3,279.6H609.8V62.9l249.5-33.4V279.6z"/>
		<path fill="#FFFFFF" d="M540.9,335.5L540.9,335.5L280.2,336c-7.6,0-13.8,6.2-13.8,13.8v206.8c0,6.9,5.2,12.8,12,13.7L539,603.5
			c0.6,0.1,1.2,0.1,1.8,0.1c3.3,0,6.6-1.2,9.1-3.4c3-2.6,4.7-6.4,4.7-10.3V349.3c0-3.7-1.4-7.2-4.1-9.8
			C548,337,544.5,335.5,540.9,335.5z M527.1,574.2L294,544.5V363.6l233.1-0.5V574.2z"/>
		<path fill="#FFFFFF" d="M539.1,43.9l-262,33.7c-6.9,0.9-12,6.8-12,13.7v202.1c0,7.6,6.2,13.8,13.8,13.8h262
			c7.6,0,13.8-6.2,13.8-13.8V57.6c0-4-1.7-7.7-4.7-10.4C547,44.6,543,43.4,539.1,43.9z M527.1,279.6H292.7V103.5l234.4-30.2V279.6z"
			/>
		<path fill="#FFFFFF" d="M873.1,336.1L596,335.7l0,0c-3.7,0-7.2,1.4-9.7,4c-2.6,2.6-4,6.1-4,9.8v247.3c0,6.9,5.1,12.7,11.9,13.7
			L871.3,648c0.6,0.1,1.2,0.1,1.8,0.1c3.3,0,6.5-1.2,9.1-3.4c3-2.6,4.7-6.4,4.7-10.4V349.9C886.9,342.2,880.7,336.1,873.1,336.1z
			 M859.3,618.4l-249.5-33.7V363.3l249.5,0.3V618.4z"/>
	</g>
</g>
</svg>
