<?xml version="1.0" encoding="utf-8"?>
<!-- Generator: Adobe Illustrator 18.0.0, SVG Export Plug-In . SVG Version: 6.00 Build 0)  -->
<!DOCTYPE svg PUBLIC "-//W3C//DTD SVG 1.1//EN" "http://www.w3.org/Graphics/SVG/1.1/DTD/svg11.dtd">
<svg version="1.1" id="_x33_10c3e5b-d44f-464b-a9f2-e9edade79978"
	 xmlns="http://www.w3.org/2000/svg" xmlns:xlink="http://www.w3.org/1999/xlink" x="0px" y="0px" viewBox="0 0 1140.2 776"
	 enable-background="new 0 0 1140.2 776" xml:space="preserve">
<title>podcast</title>
<path opacity="0.1" fill="#AE2D68" enable-background="new    " d="M468.6,764.6c77.1-42.7,165.1-56.3,251.2-38
	c121.9,25.9,275.2,15.8,304.8-184.2c50.7-341.5-161.7-431.7-161.7-431.7S721.6,98.9,638.1,53.8c-118.7-64-254.3-72.2-373.5-18
	c-76.3,34.6-139.1,82.8-149.8,148.9c-30,185,19.3,286.9-72.9,347.3S28.5,758.3,99.1,752.5s230.3-68.7,292.5,4.2
	C413.8,782.6,441.7,779.5,468.6,764.6z"/>
<rect x="516.3" y="150.2" opacity="0.1" fill="#AE2D68" enable-background="new    " width="318" height="22"/>
<rect x="516.3" y="245.2" opacity="0.1" fill="#AE2D68" enable-background="new    " width="318" height="22"/>
<rect x="516.3" y="344.2" opacity="0.1" fill="#AE2D68" enable-background="new    " width="318" height="22"/>
<rect x="544.3" y="93.2" opacity="0.1" fill="#AE2D68" enable-background="new    " width="20" height="57"/>
<rect x="544.3" y="102.2" opacity="0.1" fill="#AE2D68" enable-background="new    " width="20" height="4"/>
<rect x="544.3" y="133.2" opacity="0.1" fill="#AE2D68" enable-background="new    " width="20" height="4"/>
<rect x="574.3" y="93.2" opacity="0.1" fill="#AE2D68" enable-background="new    " width="20" height="57"/>
<rect x="574.3" y="102.2" opacity="0.1" fill="#AE2D68" enable-background="new    " width="20" height="4"/>
<rect x="574.3" y="133.2" opacity="0.1" fill="#AE2D68" enable-background="new    " width="20" height="4"/>
<rect x="604.3" y="93.2" opacity="0.1" fill="#AE2D68" enable-background="new    " width="20" height="57"/>
<rect x="604.3" y="102.2" opacity="0.1" fill="#AE2D68" enable-background="new    " width="20" height="4"/>
<rect x="604.3" y="133.2" opacity="0.1" fill="#AE2D68" enable-background="new    " width="20" height="4"/>
<rect x="634.3" y="93.2" opacity="0.1" fill="#AE2D68" enable-background="new    " width="20" height="57"/>
<rect x="634.3" y="102.2" opacity="0.1" fill="#AE2D68" enable-background="new    " width="20" height="4"/>
<rect x="634.3" y="133.2" opacity="0.1" fill="#AE2D68" enable-background="new    " width="20" height="4"/>
<rect x="664.3" y="93.2" opacity="0.1" fill="#AE2D68" enable-background="new    " width="20" height="57"/>
<rect x="664.3" y="102.2" opacity="0.1" fill="#AE2D68" enable-background="new    " width="20" height="4"/>
<rect x="664.3" y="133.2" opacity="0.1" fill="#AE2D68" enable-background="new    " width="20" height="4"/>
<rect x="694.3" y="93.2" opacity="0.1" fill="#AE2D68" enable-background="new    " width="20" height="57"/>
<rect x="694.3" y="102.2" opacity="0.1" fill="#AE2D68" enable-background="new    " width="20" height="4"/>
<rect x="694.3" y="133.2" opacity="0.1" fill="#AE2D68" enable-background="new    " width="20" height="4"/>
<rect x="724.3" y="93.2" opacity="0.1" fill="#AE2D68" enable-background="new    " width="20" height="57"/>
<rect x="724.3" y="102.2" opacity="0.1" fill="#AE2D68" enable-background="new    " width="20" height="4"/>
<rect x="724.3" y="133.2" opacity="0.1" fill="#AE2D68" enable-background="new    " width="20" height="4"/>
<rect x="726.3" y="287.2" transform="matrix(-0.8939 0.4482 -0.4482 -0.8939 1535.9187 267.8369)" opacity="0.1" fill="#AE2D68" enable-background="new    " width="20" height="57"/>
<rect x="718.4" y="298" transform="matrix(-0.8939 0.4482 -0.4482 -0.8939 1514.0642 241.7355)" opacity="0.1" fill="#AE2D68" enable-background="new    " width="20" height="4"/>
<rect x="732.3" y="325.7" transform="matrix(-0.8939 0.4482 -0.4482 -0.8939 1552.7875 288.0002)" opacity="0.1" fill="#AE2D68" enable-background="new    " width="20" height="4"/>
<rect x="544.3" y="189.2" opacity="0.1" fill="#AE2D68" enable-background="new    " width="20" height="57"/>
<rect x="544.3" y="198.2" opacity="0.1" fill="#AE2D68" enable-background="new    " width="20" height="4"/>
<rect x="544.3" y="229.2" opacity="0.1" fill="#AE2D68" enable-background="new    " width="20" height="4"/>
<rect x="574.3" y="189.2" opacity="0.1" fill="#AE2D68" enable-background="new    " width="20" height="57"/>
<rect x="574.3" y="198.2" opacity="0.1" fill="#AE2D68" enable-background="new    " width="20" height="4"/>
<rect x="574.3" y="229.2" opacity="0.1" fill="#AE2D68" enable-background="new    " width="20" height="4"/>
<rect x="604.3" y="189.2" opacity="0.1" fill="#AE2D68" enable-background="new    " width="20" height="57"/>
<rect x="604.3" y="198.2" opacity="0.1" fill="#AE2D68" enable-background="new    " width="20" height="4"/>
<rect x="604.3" y="229.2" opacity="0.1" fill="#AE2D68" enable-background="new    " width="20" height="4"/>
<rect x="729.3" y="189.2" opacity="0.1" fill="#AE2D68" enable-background="new    " width="20" height="57"/>
<rect x="729.3" y="198.2" opacity="0.1" fill="#AE2D68" enable-background="new    " width="20" height="4"/>
<rect x="729.3" y="229.2" opacity="0.1" fill="#AE2D68" enable-background="new    " width="20" height="4"/>
<rect x="759.3" y="189.2" opacity="0.1" fill="#AE2D68" enable-background="new    " width="20" height="57"/>
<rect x="759.3" y="198.2" opacity="0.1" fill="#AE2D68" enable-background="new    " width="20" height="4"/>
<rect x="759.3" y="229.2" opacity="0.1" fill="#AE2D68" enable-background="new    " width="20" height="4"/>
<rect x="789.3" y="189.2" opacity="0.1" fill="#AE2D68" enable-background="new    " width="20" height="57"/>
<rect x="789.3" y="198.2" opacity="0.1" fill="#AE2D68" enable-background="new    " width="20" height="4"/>
<rect x="789.3" y="229.2" opacity="0.1" fill="#AE2D68" enable-background="new    " width="20" height="4"/>
<rect x="544.3" y="287.2" opacity="0.1" fill="#AE2D68" enable-background="new    " width="20" height="57"/>
<rect x="544.3" y="296.2" opacity="0.1" fill="#AE2D68" enable-background="new    " width="20" height="4"/>
<rect x="544.3" y="327.2" opacity="0.1" fill="#AE2D68" enable-background="new    " width="20" height="4"/>
<rect x="574.3" y="287.2" opacity="0.1" fill="#AE2D68" enable-background="new    " width="20" height="57"/>
<rect x="574.3" y="296.2" opacity="0.1" fill="#AE2D68" enable-background="new    " width="20" height="4"/>
<rect x="574.3" y="327.2" opacity="0.1" fill="#AE2D68" enable-background="new    " width="20" height="4"/>
<rect x="604.3" y="287.2" opacity="0.1" fill="#AE2D68" enable-background="new    " width="20" height="57"/>
<rect x="604.3" y="296.2" opacity="0.1" fill="#AE2D68" enable-background="new    " width="20" height="4"/>
<rect x="604.3" y="327.2" opacity="0.1" fill="#AE2D68" enable-background="new    " width="20" height="4"/>
<rect x="634.3" y="287.2" opacity="0.1" fill="#AE2D68" enable-background="new    " width="20" height="57"/>
<rect x="634.3" y="296.2" opacity="0.1" fill="#AE2D68" enable-background="new    " width="20" height="4"/>
<rect x="634.3" y="327.2" opacity="0.1" fill="#AE2D68" enable-background="new    " width="20" height="4"/>
<rect x="664.3" y="287.2" opacity="0.1" fill="#AE2D68" enable-background="new    " width="20" height="57"/>
<rect x="664.3" y="296.2" opacity="0.1" fill="#AE2D68" enable-background="new    " width="20" height="4"/>
<rect x="664.3" y="327.2" opacity="0.1" fill="#AE2D68" enable-background="new    " width="20" height="4"/>
<rect x="694.3" y="287.2" opacity="0.1" fill="#AE2D68" enable-background="new    " width="20" height="57"/>
<rect x="694.3" y="296.2" opacity="0.1" fill="#AE2D68" enable-background="new    " width="20" height="4"/>
<rect x="694.3" y="327.2" opacity="0.1" fill="#AE2D68" enable-background="new    " width="20" height="4"/>
<path opacity="0.1" fill="#AE2D68" enable-background="new    " d="M774.3,98.3v51.9h-20V94.5C761,95.7,767.6,96.9,774.3,98.3z"/>
<rect x="754.3" y="102.2" opacity="0.1" fill="#AE2D68" enable-background="new    " width="20" height="4"/>
<rect x="754.3" y="133.2" opacity="0.1" fill="#AE2D68" enable-background="new    " width="20" height="4"/>
<path opacity="0.1" fill="#AE2D68" enable-background="new    " d="M804.3,105.2v45h-20v-49.8c2.6,0.6,5.2,1.2,7.8,1.8
	C796.1,103.2,800.2,104.2,804.3,105.2z"/>
<path opacity="0.1" fill="#AE2D68" enable-background="new    " d="M804.3,105.2v1h-20v-4h7.8C796.1,103.2,800.2,104.2,804.3,105.2z
	"/>
<rect x="784.3" y="133.2" opacity="0.1" fill="#AE2D68" enable-background="new    " width="20" height="4"/>
<g opacity="0.1">
	<path fill="#AE2D68" d="M664.7,225.5c0,0-6.1-2.1-9,3.3c-1.6,2.9-1.5,6.5,0.1,9.4c1.9,3.5,5.9,8,13.3,7.6c6.3-0.3,8.5-5.2,9-9.7
		c0.7-5.5-3.2-10.5-8.7-11.1c-1.5-0.2-3.1,0-4.5,0.5L664.7,225.5z"/>
	<path opacity="0.1" fill="#AE2D68" enable-background="new    " d="M657.1,238.6c-1.6-2.9-1.7-6.4-0.1-9.4c2.9-5.3,9-3.3,9-3.3
		l0.3-0.1c2.3-0.8,4.9-0.8,7.1,0.2c-2.5-1.5-5.6-1.8-8.4-0.8l-0.3,0.1c0,0-6.1-2.1-9,3.3c-1.6,2.9-1.5,6.5,0.1,9.4
		c1.5,2.9,3.9,5.1,6.9,6.5C660.3,243.1,658.4,241.1,657.1,238.6z"/>
	<path opacity="0.2" fill="#AE2D68" enable-background="new    " d="M661.5,228.1c0,0,2.3,1.8,7.7,0"/>
	<path fill="#AE2D68" d="M661,215.2c0,0,3.8,10.4,3.5,13.2l3-0.3c0,0-5.1-9.1-3.8-12.9H661z"/>
	<path opacity="0.2" fill="#AE2D68" enable-background="new    " d="M661,215.2c0,0,3.8,10.4,3.5,13.2l3-0.3c0,0-5.1-9.1-3.8-12.9
		H661z"/>
	<path fill="#AE2D68" d="M676.8,216.1c0,0-6.1-3.1-8.8-0.5s-3.1,9.1-3.1,9.1S674.8,226,676.8,216.1z"/>
	<path opacity="0.1" fill="#AE2D68" enable-background="new    " d="M676.8,216.1c0,0-6.1-3.1-8.8-0.5s-3.1,9.1-3.1,9.1
		S674.8,226,676.8,216.1z"/>
	<path fill="#AE2D68" d="M664.9,224.7c0,0,1.6-7.6,11.9-8.6"/>
</g>
<g opacity="0.1">
	<path fill="#AE2D68" d="M792.7,324.5c0,0-6.1-2.1-9,3.3c-1.6,2.9-1.5,6.5,0.1,9.4c1.9,3.5,5.9,8,13.3,7.6c6.3-0.3,8.5-5.2,9-9.7
		c0.7-5.5-3.2-10.5-8.7-11.1c-1.5-0.2-3.1,0-4.5,0.5L792.7,324.5z"/>
	<path opacity="0.1" fill="#AE2D68" enable-background="new    " d="M785.1,337.6c-1.6-2.9-1.7-6.4-0.1-9.4c2.9-5.3,9-3.3,9-3.3
		l0.3-0.1c2.3-0.8,4.9-0.8,7.1,0.2c-2.5-1.5-5.6-1.8-8.4-0.8l-0.3,0.1c0,0-6.1-2.1-9,3.3c-1.6,2.9-1.5,6.5,0.1,9.4
		c1.5,2.9,3.9,5.1,6.9,6.5C788.3,342.1,786.4,340.1,785.1,337.6z"/>
	<path opacity="0.2" fill="#AE2D68" enable-background="new    " d="M789.5,327.1c0,0,2.3,1.8,7.7,0"/>
	<path fill="#AE2D68" d="M789,314.2c0,0,3.8,10.4,3.5,13.2l3-0.3c0,0-5.1-9.1-3.8-12.9H789z"/>
	<path opacity="0.2" fill="#AE2D68" enable-background="new    " d="M789,314.2c0,0,3.8,10.4,3.5,13.2l3-0.3c0,0-5.1-9.1-3.8-12.9
		H789z"/>
	<path fill="#AE2D68" d="M804.8,315.1c0,0-6.1-3.1-8.8-0.5s-3.1,9.1-3.1,9.1S802.8,325,804.8,315.1z"/>
	<path opacity="0.1" fill="#AE2D68" enable-background="new    " d="M804.8,315.1c0,0-6.1-3.1-8.8-0.5s-3.1,9.1-3.1,9.1
		S802.8,325,804.8,315.1z"/>
	<path fill="#AE2D68" d="M792.9,323.7c0,0,1.6-7.6,11.9-8.6"/>
</g>
<ellipse opacity="0.1" enable-background="new    " cx="995" cy="610.8" rx="54" ry="19.2"/>
<path fill="none" stroke="#535461" stroke-width="2" stroke-miterlimit="10" d="M995.1,611c0,0,30.8-104.6-5.8-181.6
	c-15.3-32.3-20.5-68.6-13.4-103.6c3.4-16.6,8.3-32.9,14.7-48.6"/>
<path fill="#AE2D68" d="M967.8,228.5c0,12.8,23.2,50,23.2,50s23.2-37.2,23.2-50c0-12.8-10.4-23.2-23.2-23.2
	C978.2,205.2,967.8,215.6,967.8,228.5C967.8,228.4,967.8,228.5,967.8,228.5L967.8,228.5z"/>
<path fill="#AE2D68" d="M929.5,299.5c7,10.8,46.7,29.4,46.7,29.4s-0.7-43.8-7.7-54.6c-7-10.8-21.3-13.9-32.1-6.9
	C925.5,274.3,922.5,288.7,929.5,299.5L929.5,299.5z"/>
<path fill="#AE2D68" d="M931.1,420.8c11.5,5.8,55.1,1.8,55.1,1.8s-22.7-37.5-34.2-43.2c-11.4-5.8-25.4-1.2-31.2,10.3
	C915.1,401.1,919.7,415,931.1,420.8L931.1,420.8z"/>
<path fill="#AE2D68" d="M953.1,512.3c10.3,7.6,54,11.1,54,11.1S991,482.6,980.7,475c-10.3-7.6-24.8-5.5-32.5,4.9
	C940.6,490.2,942.8,504.7,953.1,512.3L953.1,512.3z"/>
<path fill="#AE2D68" d="M1024.8,331.3c-9.2,8.9-52,18.2-52,18.2s10.5-42.5,19.7-51.5c9.2-9,23.8-8.8,32.8,0.3s8.8,23.8-0.3,32.8
	C1025,331.2,1024.9,331.2,1024.8,331.3L1024.8,331.3z"/>
<path fill="#AE2D68" d="M1049.1,438.7c-11.4,5.8-55.1,1.8-55.1,1.8s22.7-37.5,34.2-43.2c11.4-5.8,25.4-1.2,31.2,10.3
	S1060.6,432.9,1049.1,438.7L1049.1,438.7z"/>
<path fill="#AE2D68" d="M1058.4,546.3c-10.3,7.6-54,11.1-54,11.1s16.1-40.8,26.4-48.4c10.2-7.7,24.8-5.7,32.5,4.5
	c7.7,10.2,5.7,24.8-4.5,32.5C1058.7,546,1058.6,546.1,1058.4,546.3L1058.4,546.3z"/>
<ellipse opacity="0.1" enable-background="new    " cx="860.6" cy="555.6" rx="54" ry="19.2"/>
<path fill="none" stroke="#535461" stroke-width="2" stroke-miterlimit="10" d="M858.4,558.4c0,0,14.4-49-2.7-85.1
	c-7.3-15.1-9.5-32.1-6.3-48.6c1.6-7.8,3.9-15.4,6.9-22.8"/>
<path fill="#AE2D68" d="M845.7,379.1c0,6,10.9,23.4,10.9,23.4s10.9-17.4,10.9-23.4c0-6-4.9-10.9-10.9-10.9S845.7,373.1,845.7,379.1
	L845.7,379.1z"/>
<path fill="#AE2D68" d="M827.7,412.4c3.3,5,21.9,13.8,21.9,13.8s-0.3-20.5-3.6-25.6c-3.3-5-10-6.5-15-3.2
	C825.9,400.6,824.4,407.4,827.7,412.4z"/>
<path fill="#AE2D68" d="M828.5,469.3c5.4,2.7,25.8,0.8,25.8,0.8s-10.7-17.5-16-20.3c-5.4-2.7-11.9-0.5-14.6,4.8
	S823.1,466.6,828.5,469.3L828.5,469.3z"/>
<path fill="#AE2D68" d="M838.8,512.1c4.8,3.6,25.3,5.2,25.3,5.2s-7.5-19.1-12.4-22.7c-4.8-3.6-11.6-2.5-15.2,2.3
	C832.9,501.8,833.9,508.6,838.8,512.1L838.8,512.1z"/>
<path fill="#AE2D68" d="M872.4,427.3c-4.3,4.2-24.4,8.5-24.4,8.5s4.9-19.9,9.2-24.1c4.3-4.2,11.2-4.1,15.4,0.2
	C876.8,416.3,876.7,423.1,872.4,427.3L872.4,427.3L872.4,427.3z"/>
<path fill="#AE2D68" d="M883.8,477.6c-5.4,2.7-25.8,0.8-25.8,0.8s10.7-17.5,16-20.3c5.4-2.7,11.9-0.5,14.6,4.8
	S889.1,474.9,883.8,477.6L883.8,477.6L883.8,477.6z"/>
<path fill="#AE2D68" d="M888.1,528c-4.8,3.6-25.3,5.2-25.3,5.2s7.5-19.1,12.4-22.7c4.8-3.6,11.6-2.6,15.2,2.3
	C894,517.6,892.9,524.4,888.1,528z"/>
<linearGradient id="SVGID_1_" gradientUnits="userSpaceOnUse" x1="623.535" y1="8.14" x2="623.535" y2="647.976" gradientTransform="matrix(1 0 0 -1 -29.89 714)">
	<stop  offset="0" style="stop-color:#808080;stop-opacity:0.25"/>
	<stop  offset="0.54" style="stop-color:#808080;stop-opacity:0.12"/>
	<stop  offset="1" style="stop-color:#808080;stop-opacity:0.1"/>
</linearGradient>
<path fill="url(#SVGID_1_)" d="M1138.3,655.8L828.7,491.6h-64.9l16.8-139.8c1.5-12.7-7.5-24.3-20.2-25.8c-0.2,0-0.3,0-0.5-0.1
	l-1.7,0.1h-0.2l-236.2,3.6c-12.5-0.9-23.8,7.4-26.6,19.6l-11,80.4l-1.6-2.4l-0.8-1.2c5.8-3.8-5.7-26.3-15.4-43l-0.9-1.5
	c6.2-2.6,13-5,13-5l-15.2-9.5c0,0-13.9-20.2-28.8-36.5c10-62.6-11.1-135-11.4-136l-0.6,0.1c2.9-4.7,4.5-10.2,4.5-15.8l0,0
	c0-8.6-3.7-16.8-10.1-22.5c-0.6-5.4-1.4-10.9-2.7-16.7l0,0c-0.2-1-0.5-2.1-0.7-3.2c-1.1-5-2.3-10-3.8-14.9c-1-3.5-2.3-6.9-3.9-10.2
	C398,94.7,381.8,82.8,364,78.6c-9.1-2.2-18.5,1.2-27.1-0.4c-4.3-0.8-8.1-4.9-12.3-6.6c-5.3-2.1-11.1-3.1-16.7-4
	c-7-1.2-14.3-2.3-21.2-0.8c-11.5,2.5-20.3,11.8-26.7,21.7c-6.4,9.8-11.5,20.7-19.4,29.4c-5.3,5.8-11.9,10.5-16.6,16.7
	c-7,9.2-9.4,21-11.7,32.4c-2.8,14.1-5.6,28.3-5.5,42.6c0,3.3,0.1,6.6,0.3,10c0.7,8.5,2.7,16.9,3.1,25.5c0,0.9,0.1,1.8,0.1,2.8
	c-0.1,15.6-4.7,31-9.3,46c-1.5,4.8-2.9,9.6-4.7,14.3c-9.2,0.8-18,2.6-24.7,6.2c-24.5,13.1-43.4,42.4-43.4,42.4l-35.9,33
	c0,0,14.2,6.6,20.8,17.9c0.2,0.4,0.5,0.8,0.8,1.1l-0.5,1.2l-21.1,48.6c0,0,13.2,9.4,33,7.5c3.2-0.4,6.5-0.2,9.6,0.7
	c0,0.6-0.1,1.2-0.1,1.8c-1.2,27.8-1.9,88.8,12.6,130l-32.5,38l-65,19.3l-2.8,50h1093.1L1138.3,655.8z M200.8,469.4
	c2.8,0.6,5.5,1.4,8.1,2.6v34.8c-1.7-12.3-4.1-24.9-7.4-35.3C201.3,470.7,201.1,470.1,200.8,469.4z M388.5,536.3c0-0.1,0-0.2,0-0.4
	c0-1.2,0.2-2.4,0.5-3.6c0.4-1.8,1.3-3.5,2.6-4.9c2.4-2.4,4.9-5,7.4-7.8c1.5,4,3.7,7.6,6.5,10.8c3.2,3.6,10.3,6.8,20.4,9.7
	C413.6,538.2,401.1,536.9,388.5,536.3L388.5,536.3z M470.1,531.5l-32.7,9.7c-15.5-3.5-26.4-7.4-30.5-12c-2.8-3.3-5.1-7.1-6.5-11.2
	c11.7-13.5,23-31.7,25.6-56.5c0.1-0.7,0.1-1.3,0.2-2c3.5-2,6.9-4.4,10-7l0.6,1.4c8.8,20,21.2,38.1,36.7,53.6L470.1,531.5z
	 M421.7,196.1c2.6,9.3,20,74.9,11.3,132.6c-5.4-5.9-10.9-11.1-15.9-14.5c-1.2-0.8-2.4-1.5-3.6-2.2c-1.1-10.6-1.6-21.5-1.7-32.4
	c0.1-13.5,0.9-26.8,2-39.5c1.2-13.5,2.6-26.3,3.5-38.9C418.9,199.6,420.4,197.9,421.7,196.1z"/>
<path fill="#DFE6F5" d="M405.8,212.2h-8.5l0,0v-59l0,0h8.5c13.6,0,24.6,11,24.6,24.6v9.8C430.3,201.2,419.4,212.2,405.8,212.2
	C405.8,212.2,405.8,212.2,405.8,212.2z"/>
<path fill="#535461" d="M398.4,212.2H396c-3.3,0-6-2.7-6-6v-46.9c0-3.3,2.7-6,6-6h2.4c3.3,0,6,2.7,6,6v46.9
	C404.5,209.5,401.8,212.2,398.4,212.2z"/>
<g opacity="0.1">
	<path d="M405.8,212.2h-8.5l0,0v-59l0,0h8.5c13.6,0,24.6,11,24.6,24.6v9.8C430.3,201.2,419.4,212.2,405.8,212.2
		C405.8,212.2,405.8,212.2,405.8,212.2z"/>
	<path d="M398.4,212.2H396c-3.3,0-6-2.7-6-6v-46.9c0-3.3,2.7-6,6-6h2.4c3.3,0,6,2.7,6,6v46.9C404.5,209.5,401.8,212.2,398.4,212.2z"
		/>
</g>
<rect x="260.7" y="184.5" fill="#865A61" width="149.1" height="154.6"/>
<rect x="260.7" y="163.1" opacity="0.1" enable-background="new    " width="149.1" height="154.6"/>
<path fill="#FDC2CC" d="M404.7,312.7l-9,65.4l-4.2,30.7l-1.6,11.3l-13.1,25.5l-24,46.8l-46.3,5.6l-81.4-114.9
	c0,0-42.6-81.5,22.2-74.1c36.4,4.2,45-28.4,45.7-57.8c0.2-14.8-1.2-29.6-4-44.1l64.8,31.5c-1.5,7-2.6,13.5-3.4,19.4
	c-3.2,24.1-0.5,39.1,4.9,48.1C369.9,330.3,404.7,312.7,404.7,312.7z"/>
<path opacity="0.1" enable-background="new    " d="M353.8,238.6c-1.5,7-2.6,13.5-3.4,19.4c-6.7,1.9-13.7,2.9-20.7,2.9
	c-12.9,0-25.5-3.3-36.8-9.6c0.2-14.8-1.2-29.6-4-44.1L353.8,238.6z"/>
<circle fill="#FDC2CC" cx="329.7" cy="184" r="75"/>
<path fill="#EC7580" d="M429.7,610.9L121.4,635l50-58.3c53.7-32.8,53.2-77.8,46.1-105.8c-2.2-9-5.6-17.6-9.9-25.7l106.6,0.5h0.9
	l8.8,19.9l0.4,0.9l6.5,14.8l22.2-39.8l7.7-12.5l4.3-7c0,0,63.9-14.8,64.8,23.1c0.1,4.4-0.1,8.7-0.5,13.1
	c-3.2,30.6-19.9,50.9-33.8,64.7C379.7,538.7,429.7,610.9,429.7,610.9z"/>
<path fill="#EC7580" d="M392.9,529.5c-2.3,9,3.4,24.5,11,39.7c-36.3,3.9-76,1.9-76,1.9l-40.8,11.1l-114.8,33.3
	c-5-6.5-9-14.6-12.3-23.8l11.4-13.3c35.8-21.9,47.5-49.2,49.2-73.3c0.7-10.9-0.4-21.9-3.2-32.5c-2.2-9-5.6-17.6-9.9-25.7l106.6,0.5
	h0.9l8.8,19.9l0.4,0.9l6.5,14.8l22.2-39.8l7.7-12.5l4.3-7c0,0,63.9-14.8,64.8,23.2c0.1,4.4-0.1,8.7-0.5,13.1
	c-3.2,30.6-19.9,50.9-33.8,64.7C394.2,526.1,393.3,527.8,392.9,529.5z"/>
<path fill="#FDC2CC" d="M633.5,577.6c-1.8,22.2-55.6-7.4-55.6-7.4s-16.7-5.6-73.2-41.7c-28.7-18.3-51.3-44.7-65-75.9
	c-2.2-4.8-4-9.8-5.4-14.9l38.9-28.7l11.3,17.4l37.7,57.6l55.6,37C577.9,521,635.3,555.3,633.5,577.6z"/>
<polygon fill="#CBCDDA" points="1128,650.7 60.2,650.7 167.1,619.1 434.3,540 604.7,489.6 824.2,489.6 "/>
<polygon fill="#CBCDDA" points="60.2,650.7 57.5,699.8 1129.8,699.8 1128,650.7 "/>
<polygon opacity="0.1" enable-background="new    " points="60.2,650.7 57.5,699.8 1129.8,699.8 1128,650.7 "/>
<path fill="#535461" d="M340.2,581.3l225.7-23.2l2.8,44.5l-103.2,10.2c-7.1,0.6-14.3,0-21.2-1.7L340,584.2c-0.8-0.2-1.3-1-1.1-1.8
	C339.1,581.8,339.6,581.4,340.2,581.3z"/>
<path opacity="0.2" enable-background="new    " d="M340.2,581.3l225.7-23.2l2.8,44.5l-103.2,10.2c-7.1,0.6-14.3,0-21.2-1.7
	L340,584.2c-0.8-0.2-1.3-1-1.1-1.8C339.1,581.8,339.6,581.4,340.2,581.3z"/>
<path fill="#535461" d="M340.2,580.4l227.5-23.2l2.8,44.5L467.3,610c-7.1,0.6-14.3,0-21.2-1.6L340,583.3c-0.8-0.2-1.3-1-1.1-1.8
	C339,580.9,339.5,580.4,340.2,580.4z"/>
<path opacity="0.3" fill="#FFFFFF" enable-background="new    " d="M394.1,582l120.3-12.3l1.5,23.5l-54.5,4.4
	c-3.8,0.3-7.5,0-11.2-0.9L394,583.5c-0.4-0.1-0.7-0.5-0.6-0.9C393.5,582.3,393.8,582,394.1,582z"/>
<path opacity="0.1" enable-background="new    " d="M484.6,426.4c-0.7,1-2,1.5-3.9,1.2c-18.5-2.8-39.8,24.1-39.8,24.1
	s-0.4,0.4-1.1,1c-2.2-4.8-4-9.8-5.4-14.9l38.9-28.8L484.6,426.4z"/>
<path opacity="0.1" enable-background="new    " d="M429.2,460c-8.7,4.8-20.7,8.3-30-1c-16.1-16.1-44.5-14-46.2-13.9
	c2.9-0.4,5.5-6.3,7.6-14.3l4.3-7c0,0,63.9-14.8,64.8,23.2C429.8,451.3,429.7,455.7,429.2,460z"/>
<path opacity="0.1" enable-background="new    " d="M395.7,378.1l-5.8,42l-13.1,25.5c-8.1-2.1-16.5-2.9-24.8-2.3
	c9.2-1.3,15.2-58.8,15.2-58.8l0.5-0.1L395.7,378.1z"/>
<path fill="#EC7580" d="M480.7,425.7c-18.5-2.8-39.8,24.1-39.8,24.1s-25,24.1-41.7,7.4c-16.1-16.1-44.5-14-46.2-13.9
	c9.2-1.3,15.2-58.8,15.2-58.8l0.5-0.1l88.9-19.8c0,0,5.3,8.1,11.3,18.5C479.6,401.7,492.6,427.5,480.7,425.7z"/>
<path opacity="0.1" enable-background="new    " d="M458.4,388.6c0.9,1.9-14.8,11.1-22.2,8.3c-7.4-2.8-25.9,12-27.8,13.9
	c-1.8,1.9-43.5-2.8-43.5-2.8c1.7-7.8,3-15.8,3.7-23.8l88.9-19.8c0,0,5.3,8.1,11.3,18.5C463.3,385.3,458,387.7,458.4,388.6z"/>
<path opacity="0.1" enable-background="new    " d="M404.7,312.7l-9,65.4l-4.2,30.7c-12.4-0.9-27.5-2.6-27.5-2.6s15.7-65.8-10.2-100
	c0,0,0.5,0,1.5-0.1C369.9,330.3,404.7,312.7,404.7,312.7z"/>
<path fill="#EC7580" d="M354.7,306.2c0,0,47.2-3.7,65.8,9.3c18.5,13,45.4,51.9,45.4,51.9l14.8,9.3c0,0-23.1,8.3-22.2,10.2
	s-14.8,11.1-22.2,8.3c-7.4-2.8-25.9,12-27.8,13.9c-1.9,1.9-43.5-2.8-43.5-2.8S380.7,340.5,354.7,306.2z"/>
<path fill="#DFE6F5" d="M695.9,561.3c-10.7-0.3-262.8-6.8-286.8-33.6c-25.6-28.6-0.8-110.9,20.2-170.4
	c22.8-64.7-4.4-157.7-4.6-158.7l1.8-0.5c0.3,1.1,27.6,94.6,4.6,159.8c-32.6,92.5-39.3,147.6-20.6,168.5c23.5,26.3,282.9,33,285.5,33
	L695.9,561.3z"/>
<path fill="#535461" d="M521.7,330.6l233.1-3.5c12.5,1.3,21.6,12.4,20.3,24.9c0,0.1,0,0.3,0,0.4l-26.5,220.2
	c-1.3,10.9-10.2,19.3-21.2,20l-238.3,14.8c-12.5,0.8-23.3-8.8-24.1-21.3c-0.1-1.6,0-3.1,0.2-4.7l31.6-231.4
	C498.7,337.9,509.6,329.4,521.7,330.6z"/>
<path opacity="0.2" enable-background="new    " d="M521.7,330.6l233.1-3.5c12.5,1.3,21.6,12.4,20.3,24.9c0,0.1,0,0.3,0,0.4
	l-26.5,220.2c-1.3,10.9-10.2,19.3-21.2,20l-238.3,14.8c-12.5,0.8-23.3-8.8-24.1-21.3c-0.1-1.6,0-3.1,0.2-4.7l31.6-231.4
	C498.7,337.9,509.6,329.4,521.7,330.6z"/>
<path fill="#535461" d="M523.5,330.6l233.1-3.5c12.5,1.3,21.6,12.4,20.4,24.9c0,0.1,0,0.3,0,0.4l-26.5,220.2
	c-1.3,10.9-10.2,19.3-21.2,20L491,607.4c-12.5,0.8-23.3-8.8-24.1-21.3c-0.1-1.6,0-3.1,0.2-4.7l31.6-231.4
	C500.6,337.9,511.5,329.4,523.5,330.6z"/>
<circle opacity="0.3" fill="#FFFFFF" enable-background="new    " cx="637.6" cy="455.8" r="11.1"/>
<path opacity="0.1" enable-background="new    " d="M403.9,569.2c-36.3,3.9-76,1.9-76,1.9l-40.8,11.1l-114.8,33.3
	c-5-6.5-9-14.6-12.3-23.8l11.4-13.3c35.8-21.9,47.5-49.2,49.2-73.3c3.1,24,3.6,45.5,3.6,45.5l46.3-4.6l67.3-16
	c4.6-1.1,9.4-1.7,14.1-1.7c8.8,0,24.4,0.2,41,1.1C390.6,538.5,396.3,554,403.9,569.2z"/>
<path opacity="0.1" enable-background="new    " d="M454.7,557.2c-21.3,25-130.6,19.5-130.6,19.5l-40.8,11.1l-114.8,33.3
	c-0.5-0.7-1-1.3-1.5-2L434.3,540C451.4,543.4,461.9,548.8,454.7,557.2z"/>
<path fill="#FDC2CC" d="M454.7,555.3c-21.3,25-130.6,19.5-130.6,19.5l-40.8,11.1l-114.8,33.3c-27-35-26.4-118.4-24.9-152.2
	c0.4-9.1,0.9-14.5,0.9-14.5s38.9-24.1,56.5,0c3.1,4.3,5.8,10.3,8,17.3c10.2,32.1,11.5,84.6,11.5,84.6l46.3-4.6l67.3-16
	c4.6-1.1,9.4-1.7,14.1-1.7C376,532.2,473,533.9,454.7,555.3z"/>
<path opacity="0.1" enable-background="new    " d="M209,469.8c-5.9-1.3-13.1-1-22.8,3.1c-19.4,8.3-34.3,6.5-34.3,6.5
	s1.2-9.5-8.3-12.3c0.4-9.1,0.9-14.5,0.9-14.5s38.9-24.1,56.5,0C204.1,456.8,206.8,462.8,209,469.8z"/>
<path opacity="0.1" enable-background="new    " d="M324.1,468.3L324.1,468.3c-0.6,0.1-9,1.7-25-1.9c-16.7-3.7-23.1,3.7-32.4,7.4
	s-33.3,5.6-42.6,1.9c-2.2-0.9-4.4-2-6.7-3c-2.2-9-5.5-17.6-9.9-25.7l106.6,0.5l9.7,19.9L324.1,468.3z"/>
<path fill="#EC7580" d="M324.1,466.4c0,0-8.3,1.8-25-1.8c-16.7-3.7-23.1,3.7-32.4,7.4s-33.3,5.6-42.6,1.8s-18.5-11.1-38-2.8
	s-34.3,6.5-34.3,6.5s1.9-14.8-17.6-13s-32.4-7.4-32.4-7.4l20.7-47.7l6.2-14.3l154.9-10.6h0.7L324.1,466.4z"/>
<path opacity="0.1" enable-background="new    " d="M299.1,422c-10.2-16.7-63.9-1.9-63.9-1.9s-25.9,7.4-31.5-6.5s-45.3-4.7-45.3-4.7
	s-28.9,10.8-35.8,0.4l6.2-14.3l154.9-10.6L299.1,422z"/>
<path fill="#EC7580" d="M254.7,312.7c0,0-50.9-10.2-75,2.8s-42.6,41.7-42.6,41.7l-35.2,32.4c0,0,13.9,6.5,20.4,17.6s36.1,0,36.1,0
	s39.8-9.3,45.4,4.6s31.5,6.5,31.5,6.5s53.7-14.8,63.9,1.9L254.7,312.7z"/>
<path opacity="0.1" enable-background="new    " d="M313.4,75.4c-6.9-1.2-14-2.3-20.8-0.8c-11.3,2.4-19.9,11.6-26.2,21.2
	c-6.3,9.6-11.2,20.3-19.1,28.8c-5.2,5.7-11.7,10.3-16.3,16.4c-6.9,9.1-9.3,20.6-11.5,31.8c-3.2,16.4-6.5,33-5.1,49.7
	c0.7,8.4,2.6,16.6,3.1,25c0.9,16.9-4.1,33.5-9,49.6c-3.4,11.2-6.9,22.6-13.7,32.1c-4.5,6.3-10.2,11.6-15.7,17.1
	c-1.3,1.1-2.3,2.6-2.9,4.2c-1.2,4.8,4.6,8,9,10.2c13.5,6.7,22.3,19.9,32.8,30.7s25.5,20.1,39.9,15.8c4.3-1.3,8.3-3.7,12.8-3.7
	c3,0,5.9,1.3,8.7,2.3c7.1,2.5,14.6,3.7,22.1,3.7c1.7,0.1,3.3-0.2,4.8-1c2.2-1.5,2.7-4.5,2.9-7.2c1.4-16.8,2.8-33.7,1.9-50.5
	c-2.2-38.2-37.4-82.3-24-118.1c5.8-15.6,16.5-29.1,22.4-44.6c6.2-16.4,28.2-29.8,32.5-46.8c0.5-1.9,1.2-4,2.8-5
	c2.3-1.4,5.3-0.2,7.5,1.4c12.6,8.7,16.7,25.1,21.3,39.7c3.7,11.8,8.3,23.3,13.7,34.3c3,6,9.4,13,15.1,9.3
	c-2.8,25.3-19.2,47.4-23,72.5c-3.6,24.5,5.1,49.6,1.8,74.1c-2.2,15.8-9.4,30.5-20.5,42c12.5,2.5,25.3,2.6,37.8,0.3
	c12.7-2.3,26.3-8.3,30.9-20.4c5-13.3-2.7-27.5-6.7-41.1c-9.4-32.8-8.7-71.6-5.7-105.6c3.1-35,7.7-65.6-0.1-99.8
	c-1.9-8.4-3.9-16.9-7.5-24.6c-7.7-16.4-23.7-28.1-41.1-32.2c-9-2.1-18.2,1.2-26.6-0.4c-4.2-0.8-8-4.8-12.1-6.5
	C324.6,77.3,318.9,76.4,313.4,75.4z"/>
<path fill="#865A61" d="M429.6,387.7c-4.6,12.1-18.2,18.1-30.9,20.4c-12.5,2.2-25.4,2.1-37.8-0.3c11.1-11.5,18.2-26.2,20.5-42
	c3.4-24.5-5.4-49.6-1.8-74.1c3.7-25.2,20.1-47.3,23-72.5c-5.6,3.6-12.1-3.3-15.1-9.3c-5.4-11.1-10-22.6-13.7-34.3
	c-4.6-14.6-8.7-31-21.3-39.7c-2.2-1.5-5.2-2.8-7.5-1.4c-1.7,1-2.3,3.1-2.8,5c-4.3,17-26.3,30.4-32.5,46.8
	c-5.9,15.6-16.6,29-22.4,44.6c-13.4,35.8,21.9,79.9,24,118.1c0.9,16.9-0.5,33.7-1.9,50.5c-0.2,2.7-0.7,5.7-2.9,7.2
	c-1.5,0.8-3.1,1.1-4.8,1c-7.5,0-14.9-1.2-22-3.7c-2.8-1-5.7-2.2-8.7-2.3c-4.5-0.1-8.5,2.4-12.8,3.7c-14.4,4.3-29.5-5-39.9-15.8
	s-19.4-23.9-32.8-30.6c-4.4-2.2-10.2-5.4-9-10.2c0.6-1.6,1.6-3.1,2.9-4.2c5.5-5.5,11.2-10.8,15.7-17.1c6.7-9.5,10.3-20.9,13.7-32.1
	c4.9-16.2,9.9-32.8,9-49.6c-0.4-8.4-2.3-16.6-3.1-25c-1.4-16.6,1.8-33.3,5.1-49.7c2.2-11.2,4.6-22.7,11.5-31.8
	c4.7-6.2,11.1-10.7,16.3-16.4c7.8-8.5,12.7-19.2,19.1-28.8c6.3-9.6,14.9-18.8,26.2-21.2c6.8-1.5,13.9-0.4,20.8,0.8
	c5.5,0.9,11.1,1.9,16.4,4c4.1,1.6,7.9,5.7,12.1,6.5c8.4,1.6,17.6-1.7,26.6,0.4c17.5,4.1,33.4,15.8,41.1,32.2c1.5,3.2,2.8,6.6,3.8,10
	c1.5,4.8,2.6,9.7,3.7,14.6c0.2,1,0.5,2.1,0.7,3.1l0,0c6.8,32.6,2.4,56.3-0.6,90.1s-3.7,79.3,5.7,112
	C426.9,360.1,434.6,374.4,429.6,387.7z"/>
<path opacity="5.000000e-002" enable-background="new    " d="M322.8,446.5c0,0,7.4,12,7.4,20.4c0,0,5.6-20.4,10.2-20.4"/>
<circle opacity="0.2" enable-background="new    " cx="436.2" cy="608.1" r="1.4"/>
<path fill="#535461" d="M417.8,144.3c-15.3-27.6-46.3-46.4-82-46.4c-50.8,0-92.1,38.2-92.1,85.2h-6.5c0-50.6,44.2-91.7,98.6-91.7
	c31.5,0,59.6,13.8,77.6,35.2c1.5,4.8,2.6,9.7,3.7,14.6C417.3,142.3,417.6,143.3,417.8,144.3z"/>
<path fill="#DFE6F5" d="M250.9,156h8.5l0,0v59l0,0h-8.5c-13.6,0-24.6-11-24.6-24.6v-9.8C226.3,167.1,237.3,156,250.9,156
	C250.8,156,250.9,156,250.9,156z"/>
<path fill="#535461" d="M258.2,156.1h2.4c3.3,0,6,2.7,6,6V209c0,3.3-2.7,6-6,6h-2.4c-3.3,0-6-2.7-6-6v-46.9
	C252.2,158.7,254.9,156.1,258.2,156.1z"/>
<path fill="#AE2D68" d="M801.8,579.9c0,0-15.9-5.4-23.5,8.6c-4.1,7.7-4,17,0.3,24.6c5,9.1,15.4,20.8,35,19.8
	c16.6-0.9,22.2-13.6,23.7-25.4c1.9-14.3-8.2-27.3-22.5-29.2c-4.1-0.5-8.2-0.1-12.1,1.3L801.8,579.9z"/>
<path opacity="0.1" fill="#FFFFFF" enable-background="new    " d="M782,614.3c-4.3-7.6-4.4-16.9-0.3-24.6c7.6-14,23.5-8.6,23.5-8.6
	l0.8-0.3c6.1-2.2,12.7-2,18.7,0.4c-6.6-4-14.7-4.7-22-2.1l-0.8,0.3c0,0-15.9-5.4-23.5,8.6c-4.1,7.7-4,17,0.3,24.6
	c3.3,6,8.9,13.1,18,17C790.5,626,785.4,620.7,782,614.3z"/>
<path opacity="0.2" enable-background="new    " d="M793.6,586.6c0,0,5.9,4.6,20.2,0"/>
<path fill="#AE2D68" d="M792.4,553c0,0,10.1,27.3,9.3,34.5l8-0.8c0,0-13.5-24-10.1-33.6H792.4z"/>
<path opacity="0.2" enable-background="new    " d="M792.4,553c0,0,10.1,27.3,9.3,34.5l8-0.8c0,0-13.5-24-10.1-33.6H792.4z"/>
<path fill="#AE2D68" d="M833.6,555.3c0,0-15.9-8.1-23-1.4s-8.2,23.9-8.2,23.9S828.3,581.3,833.6,555.3z"/>
<path opacity="0.1" fill="#FFFFFF" enable-background="new    " d="M833.6,555.3c0,0-15.9-8.1-23-1.4s-8.2,23.9-8.2,23.9
	S828.3,581.3,833.6,555.3z"/>
<path fill="none" stroke="#AE2D68" stroke-miterlimit="10" d="M802.4,577.7c0,0,4.2-19.9,31.2-22.5"/>
</svg>
